<?xml version="1.0" encoding="UTF-8" standalone="no"?>
<!-- Created with Inkscape (http://www.inkscape.org/) -->

<svg
   xmlns:dc="http://purl.org/dc/elements/1.1/"
   xmlns:cc="http://creativecommons.org/ns#"
   xmlns:rdf="http://www.w3.org/1999/02/22-rdf-syntax-ns#"
   xmlns:svg="http://www.w3.org/2000/svg"
   xmlns="http://www.w3.org/2000/svg"
   xmlns:sodipodi="http://sodipodi.sourceforge.net/DTD/sodipodi-0.dtd"
   xmlns:inkscape="http://www.inkscape.org/namespaces/inkscape"
   width="113.77084mm"
   height="157.26523mm"
   viewBox="0 0 113.77084 157.26523"
   version="1.1"
   id="svg8197"
   inkscape:version="0.92.1 r15371"
   sodipodi:docname="pitch.svg">
  <defs
     id="defs8191" />
  <sodipodi:namedview
     id="base"
     pagecolor="#ffffff"
     bordercolor="#666666"
     borderopacity="1.0"
     inkscape:pageopacity="0.0"
     inkscape:pageshadow="2"
     inkscape:zoom="0.35"
     inkscape:cx="-49.835716"
     inkscape:cy="-237.00712"
     inkscape:document-units="mm"
     inkscape:current-layer="layer1"
     showgrid="false"
     inkscape:window-width="1920"
     inkscape:window-height="1017"
     inkscape:window-x="1912"
     inkscape:window-y="-8"
     inkscape:window-maximized="1" />
  <metadata
     id="metadata8194">
    <rdf:RDF>
      <cc:Work
         rdf:about="">
        <dc:format>image/svg+xml</dc:format>
        <dc:type
           rdf:resource="http://purl.org/dc/dcmitype/StillImage" />
        <dc:title></dc:title>
      </cc:Work>
    </rdf:RDF>
  </metadata>
  <g
     inkscape:label="Livello 1"
     inkscape:groupmode="layer"
     id="layer1"
     transform="translate(7.6029905,71.140038)">
    <g
       id="g4639"
       transform="matrix(0.42309719,0,0,0.42309719,-19.872809,-296.73546)"
       style="opacity:0.7">
      <rect
         id="rect4581"
         height="371.70001"
         width="268.89999"
         y="533.20001"
         x="29"
         style="fill:#F0F9FA" />
      <g
         id="g4599"
         style="">
        <polygon
           id="polygon4583"
           points="265.1,533.2 297.9,566 297.9,604.3 226.8,533.2 "
           style="fill:#F0F9FA" />
        <polygon
           id="polygon4585"
           points="188.4,533.2 297.9,642.6 297.9,681 150.1,533.2 "
           style="fill:#F0F9FA" />
        <polygon
           id="polygon4587"
           points="111.8,533.2 297.9,719.3 297.9,757.7 73.4,533.2 "
           style="fill:#F0F9FA" />
        <polygon
           id="polygon4589"
           points="297.9,796 297.9,834.3 29,565.4 29,533.2 35.1,533.2 "
           style="fill:#F0F9FA" />
        <polygon
           id="polygon4591"
           points="297.9,872.7 297.9,904.9 291.8,904.9 29,642.1 29,603.7 "
           style="fill:#F0F9FA" />
        <polygon
           id="polygon4593"
           points="29,680.4 253.5,904.9 215.2,904.9 29,718.7 "
           style="fill:#F0F9FA" />
        <polygon
           id="polygon4595"
           points="29,757.1 176.8,904.9 138.5,904.9 29,795.4 "
           style="fill:#F0F9FA" />
        <polygon
           id="polygon4597"
           points="29,833.8 100.2,904.9 61.8,904.9 29,872.1 "
           style="fill:#F0F9FA" />
      </g>
      <g
         id="g4635"
         style="opacity:0.5">
        <g
           id="g4633"
           style="">
          <g
             id="g4603"
             style="">
            <polygon
               id="polygon4601"
               points="61.8,533.2 100.1,533.2 29,604.3 29,566 "
               style="fill:#F0F9FA" />
          </g>
          <g
             id="g4607"
             style="">
            <polygon
               id="polygon4605"
               points="138.5,533.2 176.8,533.2 29,681 29,642.6 "
               style="fill:#F0F9FA" />
          </g>
          <g
             id="g4611"
             style="">
            <polygon
               id="polygon4609"
               points="215.1,533.2 253.5,533.2 29,757.7 29,719.3 "
               style="fill:#F0F9FA" />
          </g>
          <g
             id="g4615"
             style="">
            <polygon
               id="polygon4613"
               points="297.9,533.2 297.9,565.4 29,834.3 29,796 291.8,533.2 "
               style="fill:#F0F9FA" />
          </g>
          <g
             id="g4619"
             style="">
            <polygon
               id="polygon4617"
               points="297.9,603.7 297.9,642.1 35.1,904.9 29,904.9 29,872.7 "
               style="fill:#F0F9FA" />
          </g>
          <g
             id="g4623"
             style="">
            <polygon
               id="polygon4621"
               points="73.4,904.9 297.9,680.4 297.9,718.7 111.8,904.9 "
               style="fill:#F0F9FA" />
          </g>
          <g
             id="g4627"
             style="">
            <polygon
               id="polygon4625"
               points="150.1,904.9 297.9,757.1 297.9,795.4 188.4,904.9 "
               style="fill:#F0F9FA" />
          </g>
          <g
             id="g4631"
             style="">
            <polygon
               id="polygon4629"
               points="226.8,904.9 297.9,833.8 297.9,872.1 265.1,904.9 "
               style="fill:#F0F9FA" />
          </g>
        </g>
      </g>
      <path
         id="path4637"
         d="M 276.8,544.5 H 237.7 202.1 181 v -7.7 h -35.2 v 7.7 H 124.7 89.2 50.1 40.3 v 9.8 329.3 9.8 0.1 h 105.5 v 7.6 H 181 v -7.6 h 105.5 v -0.1 -9.8 -329.3 -9.8 z m 7.2,2.5 v 4.6 c -2.3,-0.5 -4.1,-2.3 -4.6,-4.6 z m -135.6,-7.7 h 30.1 v 5.2 h -30.1 z m -2.5,7.7 h 35.1 18.5 v 32.9 H 127.3 V 547 Z m -21.1,0 v 35.4 h 77.3 V 547 h 33.1 v 70.7 H 191.9 135.1 91.8 V 547 Z m 64.5,73.2 c -1,8.9 -12.2,15.9 -25.8,15.9 -13.6,0 -24.8,-7 -25.8,-15.9 z M 89.2,547 v 73.2 h 45.9 c 0.9,10.3 13.3,18.4 28.3,18.4 15,0 27.4,-8.2 28.3,-18.4 h 45.9 V 547 h 39.2 c 0.6,3.7 3.5,6.6 7.2,7.2 v 163.6 h -77.2 c -0.7,-23.4 -19.9,-42.2 -43.4,-42.2 -23.5,0 -42.8,18.8 -43.4,42.2 H 42.9 V 554.2 c 3.7,-0.6 6.6,-3.5 7.2,-7.2 z m 190.2,343.9 c 0.5,-2.3 2.3,-4.1 4.6,-4.6 v 4.6 z m -2.5,0.1 h -39.2 v -73.3 h -45.9 c -0.9,-10.3 -13.3,-18.4 -28.3,-18.4 -15,0 -27.4,8.2 -28.3,18.4 h -46 V 891 H 50 c -0.5,-3.8 -3.4,-6.7 -7.2,-7.3 V 720.3 H 120 c 0.7,23.4 19.9,42.2 43.4,42.2 23.5,0 42.8,-18.8 43.4,-42.2 H 284 v 163.5 c -3.7,0.5 -6.6,3.5 -7.1,7.2 z m -85.1,-70.8 h 43.3 v 70.7 H 202 v -35.4 h -77.3 v 35.4 H 91.8 v -70.7 h 43.3 z m -54.2,-2.5 c 1,-8.9 12.2,-15.9 25.8,-15.9 13.6,0 24.8,7 25.8,15.9 z m 62,73.2 H 181 145.8 127.3 V 858 h 72.2 v 32.9 z M 42.9,886.3 c 2.3,0.5 4.1,2.3 4.6,4.6 h -4.6 z m 161.5,-166 c -0.7,22 -18.8,39.7 -40.9,39.7 -22.1,0 -40.2,-17.7 -40.9,-39.7 z m -81.8,-2.5 c 0.7,-22 18.8,-39.7 40.9,-39.7 22.1,0 40.2,17.7 40.9,39.7 z M 42.9,547 h 4.6 c -0.5,2.3 -2.3,4.1 -4.6,4.6 z m 135.6,351.6 h -30.1 v -5.1 h 30.1 z"
         inkscape:connector-curvature="0"
         style="fill:#F0F9FA" />
    </g>
  </g>
</svg>


